HIERARCHY
ROOT Bip001_Pelvis
{
  OFFSET 34.4345 95.6767 -26.8758
  CHANNELS 6 Xposition Yposition Zposition Zrotation Xrotation Yrotation
  JOINT Bip001_Spine
  {
    OFFSET 1.4188e-005 10.2191 -0.0116013
    CHANNELS 3 Zrotation Xrotation Yrotation
    JOINT Bip001_L_Thigh
    {
      OFFSET 11.0458 -10.2192 0.0116197
      CHANNELS 3 Zrotation Xrotation Yrotation
      JOINT Bip001_L_Calf
      {
        OFFSET -0.707118 -44.0221 0.360014
        CHANNELS 3 Zrotation Xrotation Yrotation
        JOINT Bip001_L_Foot
        {
          OFFSET -0.651902 -40.5938 -3.56146
          CHANNELS 3 Zrotation Xrotation Yrotation
          JOINT Bip001_L_Toe0
          {
            OFFSET 0.0530839 -10.2181 13.1504
            CHANNELS 3 Zrotation Xrotation Yrotation
            End Site
            {
              OFFSET -1.02532e-005 0 7.55606
            }
          }
        }
      }
    }
    JOINT Bip001_R_Thigh
    {
      OFFSET -11.0458 -10.2191 0.0115893
      CHANNELS 3 Zrotation Xrotation Yrotation
      JOINT Bip001_R_Calf
      {
        OFFSET 0.706994 -44.0221 0.35984
        CHANNELS 3 Zrotation Xrotation Yrotation
        JOINT Bip001_R_Foot
        {
          OFFSET 0.651786 -40.5938 -3.5613
          CHANNELS 3 Zrotation Xrotation Yrotation
          JOINT Bip001_R_Toe0
          {
            OFFSET -0.0531479 -10.2181 13.1504
            CHANNELS 3 Zrotation Xrotation Yrotation
            End Site
            {
              OFFSET -1.02894e-005 0 7.55606
            }
          }
        }
      }
    }
    JOINT Bip001_Spine1
    {
      OFFSET 1.87041e-005 14.5736 1.08638
      CHANNELS 3 Zrotation Xrotation Yrotation
      JOINT Bip001_Spine2
      {
        OFFSET 2.24614e-005 14.5058 -1.69078
        CHANNELS 3 Zrotation Xrotation Yrotation
        JOINT Bip001_Neck
        {
          OFFSET 2.20278e-005 15.3945 -0.489414
          CHANNELS 3 Zrotation Xrotation Yrotation
          JOINT Bip001_L_Clavicle
          {
            OFFSET 6.06036 -0.000579998 0.00836775
            CHANNELS 3 Zrotation Xrotation Yrotation
            JOINT Bip001_L_UpperArm
            {
              OFFSET 11.5509 -0.0600302 0.00193952
              CHANNELS 3 Zrotation Xrotation Yrotation
              JOINT Bip001_L_Forearm
              {
                OFFSET 25.9523 0.0806089 -2.15551
                CHANNELS 3 Zrotation Xrotation Yrotation
                JOINT Bip001_L_Hand
                {
                  OFFSET 32.2475 0.153767 1.63968
                  CHANNELS 3 Zrotation Xrotation Yrotation
                  JOINT Bip001_L_Finger0
                  {
                    OFFSET 6.04639 -2.20976 5.90322
                    CHANNELS 3 Zrotation Xrotation Yrotation
                    End Site
                    {
                      OFFSET 4.22375 -1.43895 0.606485
                    }
                  }
                  JOINT Bip001_L_Finger1
                  {
                    OFFSET 11.0826 -0.704819 -0.198153
                    CHANNELS 3 Zrotation Xrotation Yrotation
                    End Site
                    {
                      OFFSET 6.20027 -0.397518 -0.0787166
                    }
                  }
                }
              }
            }
          }
          JOINT Bip001_R_Clavicle
          {
            OFFSET -6.06037 -0.000563197 0.00835105
            CHANNELS 3 Zrotation Xrotation Yrotation
            JOINT Bip001_R_UpperArm
            {
              OFFSET -11.5509 -0.0599978 0.00190698
              CHANNELS 3 Zrotation Xrotation Yrotation
              JOINT Bip001_R_Forearm
              {
                OFFSET -25.9523 0.0806822 -2.15589
                CHANNELS 3 Zrotation Xrotation Yrotation
                JOINT Bip001_R_Hand
                {
                  OFFSET -32.2475 0.153859 1.63989
                  CHANNELS 3 Zrotation Xrotation Yrotation
                  JOINT Bip001_R_Finger0
                  {
                    OFFSET -6.04641 -2.20976 5.90317
                    CHANNELS 3 Zrotation Xrotation Yrotation
                    End Site
                    {
                      OFFSET -4.22376 -1.43895 0.60647
                    }
                  }
                  JOINT Bip001_R_Finger1
                  {
                    OFFSET -11.0826 -0.704794 -0.198182
                    CHANNELS 3 Zrotation Xrotation Yrotation
                    End Site
                    {
                      OFFSET -6.20028 -0.397504 -0.0787333
                    }
                  }
                }
              }
            }
          }
          JOINT Bip001_Head
          {
            OFFSET 1.09673e-005 11.2744 2.05948
            CHANNELS 3 Zrotation Xrotation Yrotation
            End Site
            {
              OFFSET 2.89576e-005 20.8808 -2.77728e-005
            }
          }
        }
      }
    }
  }
}
MOTION
Frames:	8
Frame Time:	0.04
34.4431 95.6706 -26.911 1.03753 0.742025 0.328602 -0.409315 1.91874 0.504015 4.08314 -0.705662 8.39463 0.481793 6.88697 0.920646 -1.39701 -6.98267 0.0239695 2.06544 -3.51318 -1.787 -5.23203 -2.11867 5.78352 2.2418 10.0107 -2.33486 -7.882 -8.10906 -7.26197 2.78351 -9.18323 2.77832 -0.836433 3.83372 1.02738 -0.83646 3.83372 1.02782 5.21724 -8.50208 -4.61903 -28.9714 8.47988 0.641248 -56.423 39.1288 4.09621 13.416 -6.97271 -23.9869 7.92543 0.697822 -1.86178 -1.59028e-015 0 3.18055e-015 -0 -3.18056e-015 -0 19.935 14.8284 14.2885 154.077 79.5061 -113.653 -18.9829 -40.4893 26.7905 -7.16666 -7.6947 -7.69305 -1.76556e-031 6.36111e-015 1.59028e-015 -3.18055e-015 6.36111e-015 7.95139e-016 -3.8567 -1.82796 -2.48414 
34.4155 95.6844 -26.8186 1.04761 0.774965 0.512235 -0.442254 1.88662 0.487705 4.23593 -0.714506 8.30785 0.557915 7.13945 1.10319 -3.81726 -8.42075 -0.0397352 0.863125 -1.78876 -0.815425 -5.17713 -1.95904 5.52756 2.19567 9.90629 -2.31828 -7.93067 -8.12531 -7.18609 2.75927 -9.11858 2.77785 -0.901296 3.76934 0.991405 -0.901274 3.76934 0.991106 5.21892 -8.64506 -4.67488 -29.0489 8.59483 0.698591 -56.2833 39.5344 4.19409 13.5881 -6.5697 -23.8068 7.22328 0.486644 -2.05282 3.53112e-031 6.36111e-015 -3.18055e-015 -3.18055e-015 6.36111e-015 -3.18055e-015 20.1059 14.7897 13.5747 78.8882 74.5337 -37.2417 -17.9296 -28.6375 28.0948 -5.44348 -7.35553 -5.69019 -3.18055e-015 3.18055e-015 1.59028e-015 -6.36111e-015 3.18056e-015 1.59028e-015 -3.85313 -1.66871 -2.53418 
34.4157 95.6836 -26.7456 1.07156 0.892576 0.623061 -0.492017 1.83358 0.477328 4.26656 -0.67974 8.86329 0.61323 7.00336 0.456679 -3.82547 -8.40887 -0.0426835 0.828337 -1.70872 -0.780899 -5.13531 -2.02835 5.36919 2.15852 10.0531 -2.26039 -7.93344 -8.1432 -7.17561 2.78402 -9.19383 2.79474 -0.996907 3.66288 0.969581 -0.997868 3.66289 0.970261 5.2572 -8.83197 -4.69461 -29.0378 8.77277 0.711191 -56.2716 39.8741 4.37088 13.8695 -6.02472 -23.7002 5.74048 -0.044963 -2.6021 -1.59028e-015 0 -0 -1.59028e-015 0 -0 20.1655 14.6678 12.5419 63.2121 63.4669 -20.6938 -18.9629 -20.2791 28.2292 -4.0931 -7.44957 -4.37289 -6.36111e-015 -9.54166e-015 -0 -6.36111e-015 -9.54167e-015 1.59028e-015 -3.80374 -1.51491 -2.55871 
34.4388 95.6807 -26.6173 1.12687 0.874481 0.682696 -0.531634 1.81511 0.46761 4.18483 -0.494171 9.07005 0.725479 6.83247 0.234256 -3.79042 -8.35944 -0.0442406 0.899781 -1.7324 -0.853476 -5.1817 -1.89929 4.93533 2.11261 10.085 -2.19404 -7.88895 -8.26061 -6.8851 2.78614 -9.20418 2.79858 -1.0789 3.62575 0.951503 -1.0786 3.62576 0.952075 5.13182 -9.08633 -4.67497 -28.9168 9.05247 0.698584 -55.9842 40.0969 4.24499 14.3251 -3.56548 -23.4594 3.72902 -0.366451 -3.7956 4.77083e-015 0 -3.18055e-015 3.18055e-015 3.18056e-015 -3.18055e-015 20.3447 14.67 11.6739 57.7999 52.5282 -15.1942 -21.4428 -12.1981 28.9942 -4.30063 -7.32343 -3.86551 -2.11867e-030 -1.90833e-014 -6.36111e-015 3.18055e-015 -1.59028e-014 -6.36111e-015 -3.7123 -1.2276 -2.58093 
34.4577 95.6858 -26.5925 1.31496 1.12542 0.775936 -0.589806 1.76608 0.436089 4.03831 -0.578983 8.83822 0.681711 6.60312 0.450093 -3.8957 -8.30856 -0.0457214 0.811864 -1.51905 -0.874571 -5.32287 -2.21397 4.82714 2.13858 10.3977 -2.23736 -7.92296 -8.40323 -6.89152 2.79245 -9.22431 2.82813 -1.1949 3.52753 0.89053 -1.19448 3.52753 0.890228 4.93136 -9.2968 -4.57707 -28.4397 9.36062 0.540525 -55.9795 40.0865 4.27477 16.0374 1.56307 -23.8338 2.41788 -0.573134 -4.58424 2.64834e-031 9.54166e-015 -1.59028e-015 3.18055e-015 6.36111e-015 -1.59028e-015 20.4018 14.5734 10.7699 54.3631 41.7147 -12.3277 -23.8062 -7.50607 30.2797 -3.07364 -6.76534 -1.11175 0 0 -1.59028e-015 6.36111e-015 0 -3.18055e-015 -3.57466 -1.17326 -2.56606 
34.4719 95.6861 -26.515 1.30906 1.07086 0.716022 -0.582768 1.77923 0.433345 4.05083 -0.458673 8.9455 0.606863 6.57862 0.354515 -3.65723 -8.21975 -0.0472268 0.89511 -1.62384 -1.01123 -5.31077 -2.19702 4.86258 2.10335 10.5069 -2.24595 -7.90872 -8.39962 -6.85197 2.79445 -9.2546 2.82982 -1.17997 3.55372 0.885561 -1.17991 3.55372 0.88548 4.81503 -9.46044 -4.43124 -28.3029 9.59086 0.47523 -55.9572 40.3763 4.23803 17.4134 4.33994 -23.8722 1.84234 0.0387147 -5.05868 3.18055e-015 9.54166e-015 -3.18055e-015 3.18055e-015 9.54167e-015 -1.59028e-015 20.3134 14.4066 9.85902 51.626 30.0026 -11.105 -27.6398 -2.78631 33.0679 -2.84223 -6.583 0.628833 -1.27222e-014 3.18055e-015 6.36111e-015 -9.54166e-015 6.36111e-015 3.18055e-015 -3.47703 -1.23266 -2.47896 
34.5193 95.6856 -26.4571 1.24811 1.00535 0.810514 -0.54539 1.78807 0.362071 4.05744 -0.346562 7.33526 0.439668 6.50368 2.06143 -3.86947 -8.31519 -0.0488892 0.905688 -1.58437 -0.878605 -5.3202 -2.02734 4.60191 2.05433 10.3854 -2.20962 -7.91951 -8.39999 -6.72834 2.7861 -9.26787 2.89538 -1.10189 3.57279 0.74177 -1.10237 3.57279 0.741695 4.74497 -9.55493 -4.16164 -28.0241 9.81242 0.270433 -56.4152 40.1087 4.60448 17.7697 4.26156 -23.8783 2.20231 -0.231226 -5.43923 3.18055e-015 0 -1.59028e-015 3.18055e-015 -3.18056e-015 -0 20.0403 14.1028 8.84505 47.9216 17.34 -9.65672 -31.8476 1.79125 36.8725 -3.43169 -5.83954 1.75588 3.18055e-015 0 -0 -0 0 3.18055e-015 -3.4602 -1.26909 -2.24121 
34.587 95.6808 -26.3268 1.2881 0.709696 0.921548 -0.502679 1.81844 0.265797 3.96982 -0.0104032 9.29846 0.595711 6.54998 0.0844256 -3.88415 -8.48623 -0.0512397 0.828078 -1.49449 -0.873659 -5.42603 -1.63333 4.2431 1.89686 10.25 -2.0763 -8.05045 -8.42282 -6.90622 2.78286 -9.63786 3.46124 -1.0181 3.63465 0.547768 -1.01637 3.63465 0.548017 4.8264 -9.34729 -3.8147 -28.0348 9.74662 -0.00443237 -56.6593 39.2275 5.3905 17.2382 2.64009 -24.4369 2.85807 -0.502728 -5.70174 6.36111e-015 -3.18055e-015 6.36111e-015 3.18055e-015 -3.18056e-015 6.36111e-015 19.2645 13.4036 7.78417 44.2603 3.28801 -8.96472 -37.0554 5.93183 42.7655 -4.58947 -5.46325 2.68784 -4.77083e-015 -1.59028e-015 -9.54166e-015 -4.77083e-015 -4.77083e-015 -6.36111e-015 -3.79946 -1.4207 -1.81815 
